<?xml version="1.0" encoding="UTF-8"?>
<svg xmlns="http://www.w3.org/2000/svg">
  <defs>
    <symbol id="arrow" viewBox="0 0 24 24">
      <g clip-path="url(#clip0_1346_214)">
        <path d="M14.7249 0L14.3886 0.245033C15.0505 4.30265 16.6022 8.45085 18.1247 10.8161H2.34539L0 12.902L0.140779 13.1839H17.8473C16.2842 15.7227 15.1795 19.6328 14.3407 23.755L14.581 24C17.4163 19.2246 21.2129 15.3673 24 12.9798V11.2045C21.1165 8.57128 16.407 3.61232 14.7249 0Z" fill="black"/>
      </g>
    </symbol>
    <symbol id="plus" viewBox="0 0 24 24">
      <path d="M0 12.8159L2.55766 10.6555H24.8975L25 10.85L22.3399 13.1077H0.15352L0 12.8159Z" fill="black"/>
      <path d="M13.4839 23.7614L11.2109 21.3304V0.0973974L11.4155 0L13.7909 2.52838V23.6154L13.4839 23.7614Z" fill="black"/>
    </symbol>
  <defs>
</svg>